PathFileType	4	(X/Y/Z)	D:\TRACE\spotREDO_2-26-24\spot_justBody_Motion_1_3-platform.trc
DataRate	CameraRate	NumFrames	NumMarkers	Units	OrigDataRate	OrigDataStartFrame	OrigNumFrames
100.00	100.00	      36	5	mm	100.00	5251	      7000
Frame#	Time	Left_Front			Right_Front			Left_Aft			Right_Aft			Post			
		X1	Y1	Z1	X2	Y2	Z2	X3	Y3	Z3	X4	Y4	Z4	X5	Y5	Z5	

5251	52.500	-649.04028	9.14826	-571.94580	765.75952	16.54700	-487.65302	-720.09528	-8.27419	646.87793	850.24219	-0.59193	650.20612	60.38401	644.92383	-965.27094	
5252	52.510	-648.85602	9.58915	-571.92157	766.28442	16.80105	-487.51675	-719.66553	-8.81658	646.94324	850.73840	-1.34139	650.29156	60.67822	645.73999	-964.72333	
5253	52.520	-648.45575	9.90194	-571.81750	766.56281	16.99949	-487.37445	-719.39362	-9.07412	647.10028	850.83533	-1.76575	650.32446	61.13282	646.30432	-964.08020	
5254	52.530	-647.98126	10.23277	-571.65192	766.72473	17.38031	-487.22260	-718.99005	-9.58595	647.17877	851.08234	-1.94412	650.23273	61.30327	646.85278	-963.50769	
5255	52.540	-647.73645	10.53950	-571.55493	767.03760	17.89419	-486.99963	-718.67194	-9.96940	647.20715	851.37933	-2.15355	650.32593	61.45021	647.70819	-963.04498	
5256	52.550	-647.54272	10.85742	-571.47858	767.15668	18.26608	-487.03842	-718.30029	-10.49701	647.44879	851.90411	-2.71703	650.53168	61.84178	648.30988	-962.53137	
5257	52.560	-647.26489	11.23866	-571.41400	767.26080	18.65041	-486.98431	-718.20953	-10.83445	647.49951	851.93060	-3.20982	650.62042	61.84924	648.65155	-962.15033	
5258	52.570	-647.02045	11.53348	-571.35120	767.37469	18.87557	-486.91751	-718.18121	-11.11006	647.57892	851.86194	-3.64208	650.66541	62.03192	649.28229	-961.61487	
5259	52.580	-646.95465	11.89324	-571.23181	767.54431	18.89743	-486.83963	-718.02130	-11.49197	647.67664	852.03259	-3.83163	650.79718	62.19147	649.96613	-961.33063	
5260	52.590	-646.92169	12.28691	-571.09106	767.83148	19.16468	-486.68643	-717.81970	-11.81506	647.74097	852.32208	-4.12940	650.86639	62.40787	650.54053	-960.80670	
5261	52.600	-646.83105	12.63729	-571.07074	767.84540	19.48966	-486.64716	-717.78571	-12.13659	647.76813	852.48505	-4.55936	650.89496	62.38254	651.02795	-960.23962	
5262	52.610	-646.63623	13.02453	-571.05450	767.99384	19.97647	-486.58386	-717.57391	-12.37443	647.79089	852.37396	-5.32394	650.74115	62.59285	651.68701	-959.78400	
5263	52.620	-646.56873	13.28443	-570.96338	767.92896	20.48745	-486.50137	-717.59186	-12.86236	647.86737	851.69397	-5.81168	650.59784	62.69626	652.19708	-959.38385	
5264	52.630	-646.49060	13.57545	-570.81128	767.91791	20.69232	-486.42017	-717.68738	-13.30794	648.12543	852.25592	-5.95189	650.77911	62.21021	652.46771	-958.86749	
5265	52.640	-646.55310	13.80205	-570.77777	768.02332	20.82658	-486.26541	-717.71289	-13.49355	648.28723	852.38843	-6.31484	650.85840	62.10820	653.14740	-958.62659	
5266	52.650	-646.52997	14.16922	-570.64044	768.10211	20.92509	-486.19199	-717.68170	-13.70979	648.28839	852.45325	-6.42056	650.86774	61.87170	653.59601	-958.13037	
5267	52.660	-646.52014	14.53374	-570.62299	768.22394	21.14644	-486.01663	-717.82025	-14.29150	648.11890	852.94073	-6.84636	650.91589	62.00460	654.23901	-957.49915	
5268	52.670	-646.61731	14.86017	-570.55359	768.00897	21.71163	-486.10004	-717.81122	-14.39468	648.13208	853.06610	-7.04071	650.97772	61.94440	654.42419	-957.28668	
5269	52.680	-646.75928	15.02320	-570.47021	768.00391	21.81750	-486.01364	-717.66052	-14.60481	648.21429	852.88025	-7.18889	651.06897	62.40614	654.87579	-956.98969	
5270	52.690	-646.65027	15.19827	-570.35669	768.08038	21.80298	-485.90799	-717.60168	-14.75438	648.30621	852.82275	-7.33954	651.24475	62.50643	655.53009	-956.71478	
5271	52.700	-646.65057	15.55874	-570.30273	768.03986	22.14551	-485.80612	-717.55750	-15.11148	648.50262	852.68866	-7.79638	651.41827	62.44818	655.98248	-956.53967	
5272	52.710	-646.61725	15.90200	-570.16241	768.02185	22.43237	-485.61200	-717.62476	-15.86002	648.64130	852.56415	-8.28306	651.64575	62.60374	656.43134	-956.31006	
5273	52.720	-646.54156	16.47238	-570.08545	767.93549	22.58732	-485.48801	-717.77618	-16.02692	648.74365	852.43030	-8.67333	651.59692	62.43079	656.95190	-955.76941	
5274	52.730	-646.84619	16.65413	-569.96857	767.50305	22.91079	-485.55014	-718.05334	-16.30621	648.71466	852.23267	-9.12204	651.34747	62.29947	657.54950	-955.23981	
5275	52.740	-647.20129	16.92341	-569.85901	767.22028	23.02031	-485.46024	-718.31061	-16.55350	648.73151	851.94452	-9.33155	651.32971	61.91319	658.00970	-954.74634	
5276	52.750	-647.50232	17.22198	-569.72845	767.14282	23.22832	-485.33270	-718.57733	-16.70525	648.83124	851.75873	-9.45612	651.51892	61.53796	658.38977	-954.23773	
5277	52.760	-647.81909	17.49807	-569.63007	766.99048	23.52192	-485.19043	-718.82904	-17.04174	648.93689	851.59668	-9.68312	651.76923	61.07097	658.87256	-953.79803	
5278	52.770	-647.97858	17.64233	-569.67749	766.75262	23.75818	-485.10403	-719.02197	-17.16704	648.98700	851.44788	-9.95325	651.80176	61.06557	659.21393	-953.31311	
5279	52.780	-648.21674	17.83851	-569.68146	766.59723	23.92150	-485.05594	-719.22339	-17.30757	648.96301	851.16083	-10.26304	651.85516	60.75504	659.67566	-952.72998	
5280	52.790	-648.45746	18.00133	-569.58551	766.26892	24.12694	-485.08862	-719.68671	-17.72467	648.88275	850.86560	-10.45057	651.96259	60.43144	659.92212	-952.42755	
5281	52.800	-648.78442	18.09470	-569.48450	766.03217	24.17475	-485.08426	-719.73303	-17.79254	648.95398	850.51868	-10.71521	651.98413	60.03368	660.10071	-952.18030	
5282	52.810	-649.03113	18.20612	-569.44141	765.55225	24.45853	-484.99246	-719.99939	-18.06295	649.06494	850.14124	-10.95028	651.95172	60.07393	660.31079	-951.93402	
5283	52.820	-649.39355	18.48718	-569.27008	764.97601	24.94829	-485.01886	-720.38104	-18.37793	649.13507	849.85083	-11.05760	651.85925	59.64554	660.61676	-951.88354	
5284	52.830	-649.79803	18.88298	-569.12537	764.68011	25.02942	-484.83920	-720.76801	-18.73736	649.29816	849.52472	-11.34651	651.89551	59.08870	661.03485	-952.07629	
5285	52.840	-650.21252	19.17483	-569.14532	764.36432	25.24021	-484.74103	-721.26373	-19.05775	649.36285	849.12115	-11.64539	652.17780	58.65580	661.47455	-952.14819	
5286	52.850	-650.77570	19.38878	-569.14771	764.02087	25.33234	-484.70462	-721.57922	-19.25205	649.43933	848.92615	-11.86575	652.24255	58.55540	661.68353	-951.93488	
